HIERARCHY
ROOT Hips
{
  OFFSET 2.26061 22.2878 23.7974
  CHANNELS 6 Xposition Yposition Zposition Zrotation Xrotation Yrotation
  JOINT LeftUpLeg
  {
    OFFSET 8.64259 1.95398 -2.38835
    CHANNELS 3 Zrotation Xrotation Yrotation
    JOINT LeftLeg
    {
      OFFSET 43.7702 0 0
      CHANNELS 3 Zrotation Xrotation Yrotation
      JOINT LeftFoot
      {
        OFFSET 40.6238 0 0
        CHANNELS 3 Zrotation Xrotation Yrotation
        JOINT LeftToeBase
        {
          OFFSET 12.7242 0 0
          CHANNELS 3 Zrotation Xrotation Yrotation
          End Site
          {
            OFFSET 0 0 0
          }
        }
      }
    }
  }
  JOINT RightUpLeg
  {
    OFFSET -8.2249 1.95398 -2.59336
    CHANNELS 3 Zrotation Xrotation Yrotation
    JOINT RightLeg
    {
      OFFSET 43.5653 0 0
      CHANNELS 3 Zrotation Xrotation Yrotation
      JOINT RightFoot
      {
        OFFSET 40.6238 0 0
        CHANNELS 3 Zrotation Xrotation Yrotation
        JOINT RightToeBase
        {
          OFFSET 12.7242 0 0
          CHANNELS 3 Zrotation Xrotation Yrotation
          End Site
          {
            OFFSET 0 0 0
          }
        }
      }
    }
  }
  JOINT Spine
  {
    OFFSET 0.165834 0.87714 6.61349
    CHANNELS 3 Zrotation Xrotation Yrotation
    JOINT Spine1
    {
      OFFSET 7.38963 1.71661e-005 0
      CHANNELS 3 Zrotation Xrotation Yrotation
      JOINT Spine2
      {
        OFFSET 11.9445 1.14441e-005 0
        CHANNELS 3 Zrotation Xrotation Yrotation
        JOINT Spine3
        {
          OFFSET 14.7254 4.19617e-005 0
          CHANNELS 3 Zrotation Xrotation Yrotation
          JOINT Spine4
          {
            OFFSET 10.9679 0 0
            CHANNELS 3 Zrotation Xrotation Yrotation
            JOINT RightShoulder
            {
              OFFSET 2.46616 -1.6653 3.69651
              CHANNELS 3 Zrotation Xrotation Yrotation
              JOINT RightArm
              {
                OFFSET 13.0012 0 0
                CHANNELS 3 Zrotation Xrotation Yrotation
                JOINT RightForeArm
                {
                  OFFSET 28.7848 1.52588e-005 0
                  CHANNELS 3 Zrotation Xrotation Yrotation
                  JOINT RightHand
                  {
                    OFFSET 26.5688 1.52588e-005 0
                    CHANNELS 3 Zrotation Xrotation Yrotation
                    End Site
                    {
                      OFFSET 0 0 0
                    }
                  }
                }
              }
            }
            JOINT LeftShoulder
            {
              OFFSET 2.38034 -1.29275 -3.7523
              CHANNELS 3 Zrotation Xrotation Yrotation
              JOINT LeftArm
              {
                OFFSET 16.3182 6.10351e-005 0
                CHANNELS 3 Zrotation Xrotation Yrotation
                JOINT LeftForeArm
                {
                  OFFSET 27.0901 0 0
                  CHANNELS 3 Zrotation Xrotation Yrotation
                  JOINT LeftHand
                  {
                    OFFSET 24.5451 1.52588e-005 0
                    CHANNELS 3 Zrotation Xrotation Yrotation
                    End Site
                    {
                      OFFSET 0 0 0
                    }
                  }
                }
              }
            }
            JOINT Neck
            {
              OFFSET 5.0226 -0.0266342 0
              CHANNELS 3 Zrotation Xrotation Yrotation
              JOINT Head
              {
                OFFSET 6.69363 2.86102e-005 0
                CHANNELS 3 Zrotation Xrotation Yrotation
                End Site
                {
                  OFFSET 0 0 0
                }
              }
            }
          }
        }
      }
    }
  }
}
MOTION
Frames:	9
Frame Time:	0.0416667
-53.6132 97.3222 42.1591 -98.7761 -87.9439 -98.1924 -171.682 6.00109 91.9302 -11.77 11.495 0.0641487 62.4873 2.40016 0.982214 29.6724 0.672877 0.361455 173.642 4.09516 89.762 -10.0968 -6.5172 -2.04174 62.6612 -1.93497 -1.04518 29.6487 0.125947 -1.45075 -0.0994357 6.9971 -90.0816 12.8795 -0.236493 -0.134627 1.20858 -0.242193 -0.124086 -21.3266 -0.185097 -0.199477 -1.31399 -0.185108 -0.199484 93.4129 -51.9113 -95.2567 24.2467 -5.40313 4.14473 -4.5762 -23.3013 -41.1085 -5.07901 -0.796676 5.81232 -104.203 -54.1074 59.6658 -18.0239 13.9656 6.49394 2.10839 9.65053 -32.3009 9.25284 0.678235 3.17096 12.7848 2.28753 2.41522 -8.43857 1.83864 -3.571 
-53.5961 97.3133 41.8888 -91.0292 -87.7457 -90.5493 -171.587 6.53976 91.8692 -11.7731 10.6088 -0.194913 61.561 1.56785 0.911889 31.0929 1.9343 -1.60993 173.471 4.63444 89.604 -10.1291 -6.86828 -1.88044 62.6877 -1.98927 -1.0845 30.1165 0.195371 -2.48793 -0.0963799 7.07669 -90.0425 12.7205 -0.211677 -0.060001 1.04953 -0.214113 -0.0506346 -21.4857 -0.183862 -0.120842 -1.47307 -0.183866 -0.120854 93.2535 -51.9813 -95.4854 24.3605 -5.07841 5.00491 -4.14168 -23.0247 -39.8307 -5.65068 -0.800606 5.11469 -103.835 -53.506 59.9339 -18.9467 14.0135 8.00891 2.29845 9.68925 -32.9845 11.1317 0.790989 3.06572 7.82617 1.14483 2.76477 1.72393 0.590856 -0.30171 
-53.5412 97.3143 41.6525 -78.9545 -87.5658 -78.5728 -171.699 7.22364 91.6884 -11.8473 11.0187 -0.286869 61.6357 1.66349 1.63881 30.475 1.34161 -0.062371 173.569 5.35488 89.5812 -10.2468 -7.20227 -1.95246 62.5569 -1.9168 -1.03858 32.5686 0.311582 -3.86945 -0.112287 7.1484 -90.0605 12.577 -0.251823 -0.091468 0.906044 -0.25561 -0.0803053 -21.6292 -0.212696 -0.162935 -1.61658 -0.212695 -0.162926 93.2021 -51.8446 -95.5857 23.9093 -5.14145 6.26232 -3.51034 -22.8182 -39.3822 -5.7774 -0.79944 5.06478 -103.522 -53.4339 60.3371 -20.1449 13.5126 10.0322 2.40829 8.8219 -33.6 10.7655 0.706469 2.5418 8.32577 1.41614 2.72881 4.218 0.874895 -0.106021 
-53.4693 97.2722 41.5187 -64.9175 -86.8476 -64.5068 -171.871 8.15626 91.5523 -11.9053 10.3364 -0.24282 61.8296 1.6418 1.49836 31.2062 1.83493 1.1879 173.939 6.22601 89.7795 -9.96529 -7.4511 -2.15595 62.3157 -1.86322 -1.01122 35.106 0.355198 -4.3632 -0.0604367 7.2028 -90.0564 12.4682 -0.146886 -0.0957713 0.797284 -0.150959 -0.0892155 -21.7379 -0.111313 -0.135488 -1.72524 -0.111311 -0.135484 93.0631 -52.2635 -95.7245 23.5103 -4.88353 7.62403 -3.11462 -22.5425 -38.919 -5.63617 -0.79372 5.22425 -103.49 -53.1162 60.2559 -21.3078 13.355 12.1286 3.04551 9.32808 -34.1553 10.4968 0.726044 2.86493 8.47339 1.30583 2.20515 9.18491 0.94821 0.639269 
-53.3606 97.2402 41.5125 -49.0332 -86.379 -48.5935 -171.856 9.2036 91.5012 -11.8622 10.4839 -0.446561 61.9776 1.63604 1.48499 33.5303 3.67561 1.97169 174.073 6.89995 89.8596 -9.2051 -7.15834 -2.1377 62.2232 -1.87123 -1.02163 36.048 0.366936 -4.46914 -0.0712014 7.24623 -90.0751 12.3813 -0.177108 -0.129842 0.710366 -0.182648 -0.121926 -21.8248 -0.1299 -0.177065 -1.81214 -0.1299 -0.177075 92.769 -52.4864 -96.1275 23.459 -4.35808 8.64397 -3.6659 -22.8899 -38.5862 -6.18996 -0.86731 5.6754 -103.565 -53.1621 60.1708 -22.1875 13.326 13.5264 2.96432 9.12596 -33.9176 9.71004 0.56404 1.80917 8.35749 1.31485 2.81189 16.4686 0.741481 -0.0885651 
-53.3004 97.2017 41.5227 -39.2464 -85.6248 -38.8059 -171.862 9.90423 91.4847 -11.2804 10.1894 -0.579118 61.7797 1.48263 0.878651 35.297 5.10073 2.96942 174.14 7.68304 89.9168 -8.77921 -6.89103 -2.04927 62.52 -1.97759 -1.08569 37.5362 0.385434 -4.2828 -0.0291952 7.27368 -90.0771 12.3264 -0.0945504 -0.143231 0.655487 -0.100757 -0.138938 -21.8796 -0.0471334 -0.16502 -1.86696 -0.0471405 -0.165031 92.7083 -52.7287 -96.1762 23.2644 -4.60521 9.25173 -1.99953 -21.9382 -36.7533 -6.20771 -0.828308 5.28731 -103.645 -52.9098 59.96 -22.823 13.5575 14.1429 2.64065 9.09459 -33.6469 10.7725 0.657977 2.10484 10.0457 1.09328 3.25882 20.6348 0.301223 -0.471303 
-53.2195 97.1908 41.6869 -34.9952 -85.0955 -34.5036 -171.87 10.4278 91.4521 -11.3418 10.2473 -0.663965 62.3715 1.90002 0.769331 35.0107 4.84874 4.1549 174.187 8.05821 89.9633 -8.50722 -6.85268 -2.01929 62.6063 -2.00968 -1.10405 38.1979 0.389351 -4.44929 0.00363053 7.28062 -90.0734 12.3126 -0.0275713 -0.143368 0.641652 -0.0338489 -0.142016 -21.8934 0.0167945 -0.145018 -1.8808 0.0167906 -0.145029 92.0548 -53.1429 -97.0747 22.9791 -4.67228 9.78992 -1.40448 -21.9646 -36.0725 -6.26639 -0.835119 5.35808 -103.921 -53.0062 59.6163 -22.998 13.683 13.9742 1.09182 7.44548 -32.3278 11.7882 0.828589 3.02659 11.2718 0.997574 2.78115 22.4512 0.329555 -0.193512 
-53.1072 97.227 41.9977 -34.0834 -84.6754 -33.4267 -171.733 10.7025 91.5343 -11.4039 10.1837 -0.778157 62.3951 1.82601 1.10491 35.2794 5.07764 4.00666 174.29 8.10116 90.105 -8.17426 -6.96825 -2.03961 62.1966 -1.88396 -1.02881 39.5104 0.391688 -4.93604 0.0378882 7.27676 -90.0613 12.3203 0.0462256 -0.127715 0.649378 0.0405591 -0.129624 -21.8858 0.0824789 -0.107907 -1.8731 0.0824689 -0.107914 92.0315 -53.5672 -97.032 22.6483 -4.96814 8.32928 -1.23225 -22.8162 -35.3047 -5.88614 -0.854823 5.96591 -104.97 -53.4264 58.3411 -21.8953 13.6377 13.0561 0.753417 7.5613 -31.0821 11.3532 0.786738 2.90964 13.1608 1.18593 2.67606 21.6496 0.444834 -0.388302 
-53.0102 97.253 42.4922 -34.84 -84.2928 -33.8845 -171.702 10.5507 91.7306 -11.1319 10.2266 -0.696396 62.4219 2.11102 1.81287 35.5275 5.28913 3.49766 174.428 8.18951 90.3401 -8.24977 -6.92813 -2.0492 61.6039 -1.62358 -0.863874 40.3976 0.390763 -5.10151 0.0862893 7.1675 -90.0973 12.5389 0.125081 -0.20894 0.867981 0.115764 -0.214254 -21.6671 0.182084 -0.161689 -1.65449 0.182091 -0.1617 91.0894 -54.651 -98.2086 20.6442 -5.39235 4.96574 -0.707084 -26.545 -33.5083 -4.25066 -0.807161 6.56517 -107.326 -54.3294 55.5173 -18.8446 15.5271 9.69021 -0.982828 9.08968 -27.263 10.1903 0.695624 2.76318 13.3263 0.938826 4.36516 20.7587 -0.499414 -1.82793 
